P2
125 101
100
1 1 1 1 1 1 1 1 1 1 1 1 3 3 3 3 3 3 3 3 3 3 3 3 3 3 3 3 3 3 3 3 3 3 3 3 3 3 3 3 3 4 4 4 4 4 3 3 3 3 3 3 3 3 3 3 3 3 3 3 3 3 3 4 4 4 4 4 4 5 5 4 4 4 4 4 5 5 4 4 4 4 4 4 5 4 4 4 4 3 3 3 3 3 3 3 3 3 3 3 3 3 3 3 3 3 3 3 3 3 3 4 4 3 3 3 3 3 3 3 3 3 3 3 2 
1 1 1 1 1 1 1 1 1 1 1 3 3 3 3 3 3 3 3 3 3 3 3 3 3 3 3 3 3 3 3 3 3 3 3 3 3 3 3 3 3 3 4 4 4 4 4 3 3 3 3 3 3 3 3 3 3 3 3 3 3 3 3 4 4 4 4 4 4 4 5 5 4 4 4 5 6 5 5 4 4 4 4 5 4 4 4 4 4 4 3 3 3 3 3 3 3 3 3 3 3 3 3 3 3 3 3 3 3 4 4 4 3 3 3 3 3 3 3 3 3 3 3 2 2 
1 1 1 1 1 1 1 1 1 3 3 3 3 3 3 3 3 3 3 3 3 3 3 3 3 3 3 3 3 3 3 3 3 3 3 3 3 3 3 3 3 3 4 4 4 4 4 4 3 3 3 3 3 3 3 3 3 3 3 3 3 3 4 4 4 4 4 4 4 4 5 5 5 5 6 6 6 5 5 6 5 5 5 5 4 4 4 4 4 4 3 3 3 3 3 3 3 3 3 3 3 3 3 3 3 3 3 3 4 4 4 3 3 3 3 3 3 3 3 3 3 3 3 2 2 
1 1 1 1 1 1 1 3 4 3 3 3 3 3 3 3 3 3 3 3 3 3 3 3 3 3 3 3 3 3 3 3 3 3 3 3 3 3 3 3 3 3 4 4 4 4 4 4 4 4 3 3 3 3 3 3 3 3 3 3 3 4 4 4 4 4 4 4 4 4 5 5 6 8 12 8 21 6 6 5 5 5 5 5 4 4 4 4 4 4 3 3 3 3 3 3 3 3 3 3 3 3 3 3 3 3 3 4 4 4 3 3 3 3 3 3 3 3 3 3 3 3 2 2 2 
1 1 1 1 1 1 3 3 4 4 3 3 3 3 3 3 3 3 3 3 3 3 3 3 3 3 3 3 3 3 3 3 3 3 3 3 3 3 3 3 3 3 4 4 4 4 4 4 4 4 4 3 3 3 3 3 3 3 3 3 5 5 4 4 4 4 4 4 4 5 5 5 7 8 8 20 9 7 6 6 5 5 6 5 4 4 4 4 4 4 4 3 3 3 3 3 3 3 3 3 3 3 3 3 3 4 4 4 4 3 3 3 3 3 3 3 3 3 3 3 3 3 2 2 2 
1 1 1 1 3 3 3 3 3 4 4 3 3 3 3 3 3 3 3 3 3 3 3 3 3 3 3 3 3 3 3 3 3 3 3 3 3 3 3 3 3 3 3 4 4 4 4 4 4 4 4 4 4 4 4 3 3 4 4 4 5 5 5 4 4 4 4 4 4 6 5 5 6 6 8 15 10 7 6 6 6 6 5 5 4 4 4 4 4 4 4 4 3 3 3 3 3 3 3 3 3 3 3 3 4 4 4 4 3 3 3 3 3 3 3 3 3 3 3 3 3 2 2 2 2 
1 1 2 3 3 3 3 3 3 3 4 3 3 3 3 3 3 3 3 3 3 3 3 3 3 3 3 3 3 3 3 3 3 3 3 3 3 3 3 3 3 3 3 4 4 4 4 4 4 4 4 4 4 4 4 4 4 4 4 4 4 5 5 5 5 4 4 4 5 5 6 6 6 6 7 13 44 9 8 7 7 8 8 5 4 4 4 4 4 4 4 5 4 3 3 3 3 3 3 3 3 4 4 4 4 4 4 3 3 3 3 3 3 3 3 3 3 3 3 3 3 2 2 2 2 
2 2 2 3 3 3 3 3 3 3 3 4 3 3 3 3 3 3 3 3 3 3 3 3 3 3 3 3 3 3 3 3 3 3 3 3 3 3 3 3 3 3 3 4 4 4 5 4 4 4 4 4 4 4 4 4 4 4 4 4 4 5 5 5 5 5 5 5 5 5 6 6 8 7 8 10 13 13 9 9 9 10 11 6 6 4 4 4 4 5 5 5 4 4 4 4 3 4 4 4 4 4 4 4 4 4 4 3 3 3 3 3 3 3 3 3 3 3 3 3 3 2 2 2 2 
2 2 2 2 3 3 3 3 3 3 3 4 4 3 3 3 3 3 3 3 3 3 3 3 3 3 3 3 3 3 3 3 3 3 3 3 3 3 3 3 3 3 3 4 4 4 5 4 4 4 4 4 4 4 4 4 4 4 4 4 4 5 5 5 5 5 5 5 5 5 5 6 7 7 8 9 12 99 12 12 20 17 8 6 6 5 5 5 5 6 5 4 4 4 4 4 4 4 4 4 4 4 4 4 4 4 3 3 3 3 3 3 3 3 3 3 3 3 3 3 2 2 2 2 2 
2 2 2 2 3 3 3 3 3 3 3 3 4 4 3 3 3 3 3 3 3 3 3 3 3 3 3 3 3 3 3 3 3 3 3 3 3 3 3 3 3 3 3 4 4 4 4 5 4 4 4 4 4 4 4 4 4 4 4 4 4 4 5 5 5 5 5 5 5 5 5 6 6 7 8 9 10 12 21 16 12 9 7 7 6 5 5 5 6 5 5 4 4 4 4 4 4 4 4 4 4 4 4 4 4 3 3 3 3 3 3 3 3 3 3 3 3 3 3 3 2 2 2 2 2 
2 2 2 2 2 3 3 3 3 3 3 3 3 4 4 3 3 3 3 3 3 3 3 3 3 3 3 3 3 3 3 3 3 3 3 3 3 3 3 3 3 3 3 4 4 4 4 5 5 4 4 4 4 4 4 4 4 4 4 4 4 4 5 5 6 5 5 5 5 5 5 7 7 8 8 8 11 13 26 13 11 9 8 7 6 6 6 6 5 5 5 4 4 4 4 4 4 4 4 4 4 4 4 4 4 3 3 3 3 3 3 3 3 3 3 3 3 3 3 2 2 2 2 2 2 
2 2 2 2 2 3 3 3 3 3 3 3 3 4 4 4 3 3 3 3 3 3 3 3 3 3 3 3 3 3 3 3 3 3 3 3 3 3 3 3 3 3 3 4 4 4 4 4 5 4 4 4 4 4 4 4 4 4 4 4 4 4 5 5 6 7 6 5 5 5 7 7 7 8 9 10 15 15 27 13 11 9 8 7 7 7 6 5 5 5 5 4 4 4 4 4 4 4 4 4 5 4 4 4 3 3 3 3 3 3 3 3 3 3 3 3 3 3 3 2 2 2 2 2 2 
2 2 2 2 2 3 3 3 3 3 3 3 3 3 4 4 4 3 3 3 3 3 3 3 3 3 3 3 3 3 3 3 3 3 3 3 3 3 3 3 3 3 3 4 4 4 4 4 5 5 4 4 4 4 4 4 4 4 4 4 4 4 5 5 5 6 7 6 6 6 7 8 10 10 10 14 22 32 0 18 14 10 8 8 7 6 5 5 5 5 5 4 4 4 4 4 4 4 4 5 5 4 4 4 3 3 3 3 3 3 3 3 3 3 3 3 3 3 3 2 2 2 2 2 2 
2 2 2 2 2 3 3 3 3 3 3 3 3 3 4 4 4 4 3 3 3 3 3 3 3 3 3 3 3 3 3 3 3 3 3 3 3 3 3 3 3 3 3 4 4 4 4 4 5 5 5 4 4 4 4 4 4 4 4 4 4 5 5 5 5 6 6 8 6 6 8 9 13 14 12 14 38 0 0 24 14 11 11 11 8 6 5 5 5 5 5 5 4 4 4 4 4 4 5 5 4 4 4 3 3 3 3 3 3 3 3 3 3 3 3 3 3 3 3 2 2 2 2 2 2 
2 2 2 2 2 2 3 3 3 3 3 3 3 3 3 4 4 4 4 3 3 3 3 3 3 3 3 3 3 3 3 3 3 3 3 3 3 3 3 3 3 3 3 4 4 4 4 4 4 5 5 5 4 4 4 4 4 4 4 4 4 5 5 5 5 6 6 6 7 8 16 30 19 17 16 28 30 0 0 24 21 13 15 17 9 7 8 5 5 5 5 6 5 4 4 4 5 5 6 4 4 4 4 3 3 3 3 3 3 3 3 3 3 3 3 3 3 3 2 2 2 2 2 2 2 
2 2 2 2 2 2 3 3 3 3 3 3 3 3 3 4 4 4 4 4 3 3 3 3 3 3 3 3 3 3 3 3 3 3 3 3 3 3 3 3 3 3 3 4 4 4 4 4 4 5 5 5 5 5 4 4 4 4 4 4 5 5 5 5 6 6 6 6 7 8 9 13 16 32 75 0 0 0 0 0 67 41 19 45 13 7 7 6 6 6 6 6 5 5 5 5 5 5 5 4 4 4 4 3 3 3 3 3 3 3 3 3 3 3 3 3 3 3 2 2 2 2 2 2 2 
2 2 2 2 2 2 3 3 3 3 3 3 3 3 3 3 4 4 4 4 4 3 3 3 3 3 3 3 3 3 3 3 3 3 3 3 3 3 3 3 3 3 4 4 4 4 4 4 4 5 5 6 5 5 5 5 5 5 5 7 6 6 6 6 7 6 6 8 7 8 9 11 14 51 0 0 0 0 0 0 0 0 45 12 11 7 7 6 6 6 6 6 5 5 5 5 5 5 5 4 4 4 4 3 3 3 3 3 3 3 3 3 3 3 3 3 3 3 2 2 2 2 2 2 2 
2 2 2 2 2 2 3 3 3 3 3 3 3 3 3 3 4 4 4 4 4 4 3 3 3 3 3 3 3 3 3 3 3 3 3 3 3 3 3 3 3 3 4 4 4 4 4 4 4 5 5 5 6 5 5 5 5 5 6 6 6 6 6 6 7 7 7 7 9 8 9 11 51 42 0 0 0 0 0 0 0 56 18 12 10 8 7 7 7 7 6 6 5 5 5 5 6 5 5 4 4 4 4 3 3 3 3 3 3 3 3 3 3 3 3 3 3 3 2 2 2 2 2 2 2 
2 2 2 2 2 2 3 3 3 3 3 3 3 3 3 3 3 4 4 4 4 4 4 3 3 3 3 3 3 3 3 3 3 3 3 3 3 3 3 3 3 4 4 4 4 4 4 4 4 5 5 5 6 6 5 5 5 5 6 6 7 6 6 7 7 7 7 7 8 9 11 15 35 0 0 0 0 0 0 0 0 0 27 13 9 8 7 7 8 7 6 6 6 5 5 6 7 5 5 4 4 4 4 3 3 3 3 3 3 3 3 3 3 3 3 3 3 3 2 2 2 2 2 2 2 
2 2 2 2 2 2 3 3 3 3 3 3 3 3 3 3 3 4 4 4 5 4 4 4 4 3 3 3 3 3 3 3 3 3 3 3 3 3 3 3 4 4 4 4 4 4 4 4 4 5 5 5 5 6 6 6 6 7 6 7 8 7 8 7 8 8 7 9 8 9 10 11 18 50 0 0 0 0 0 0 0 0 18 11 9 9 8 8 7 7 6 6 6 7 6 6 7 6 5 6 4 4 4 3 3 3 3 3 3 3 3 3 3 3 3 3 3 3 2 2 2 2 2 2 2 
2 2 2 2 2 2 3 3 3 3 3 3 3 3 3 3 3 4 4 4 4 4 4 4 4 4 3 3 3 3 3 3 3 3 3 3 3 3 3 4 4 4 4 4 4 4 4 4 5 5 5 5 5 6 6 7 8 9 8 8 10 9 8 9 8 9 8 10 9 10 10 12 14 0 0 0 0 0 0 0 0 31 15 11 10 9 9 9 8 7 8 7 7 7 6 6 7 12 7 6 5 5 5 5 3 3 3 3 3 3 3 3 3 3 3 3 3 3 2 2 2 2 2 2 2 
2 2 2 2 2 2 3 3 3 3 3 3 3 3 3 3 3 4 4 4 4 4 4 4 4 4 4 4 3 3 3 3 3 3 3 3 3 5 5 4 4 4 4 4 4 4 4 4 5 5 5 5 5 6 6 7 10 17 10 18 14 14 9 9 9 9 75 15 12 12 13 14 14 18 50 0 0 0 0 0 0 18 16 13 12 11 10 10 24 10 8 7 8 7 7 8 8 11 19 7 5 5 5 5 3 3 3 3 3 3 3 3 3 3 3 3 3 3 2 2 2 2 2 2 2 
2 2 2 2 2 2 3 3 3 3 3 3 3 3 3 3 3 3 4 4 4 4 5 4 4 4 4 4 4 4 4 4 4 4 4 4 5 5 5 5 5 4 4 4 4 4 4 5 5 5 5 5 5 6 6 7 9 12 52 25 52 13 11 10 10 11 19 53 17 45 58 25 23 25 28 36 0 0 0 41 0 0 0 60 38 36 13 16 45 17 9 8 9 8 8 8 9 15 11 8 6 6 5 5 4 3 3 3 3 3 3 3 3 3 3 3 3 3 2 2 2 2 2 2 2 
2 2 2 2 2 2 3 3 3 3 3 3 3 3 3 3 3 3 4 4 4 4 4 5 4 4 4 4 4 4 4 4 4 4 4 4 5 6 5 5 5 5 5 5 5 5 6 6 5 5 5 5 6 7 7 7 9 14 29 26 23 17 37 17 12 13 20 0 92 0 0 0 0 0 0 0 0 0 0 0 0 0 0 0 65 38 19 0 0 17 10 9 10 11 10 10 10 15 12 8 6 5 5 5 4 4 4 3 3 3 3 3 3 3 3 3 3 3 2 2 2 2 2 2 2 
2 2 2 2 2 2 3 3 3 3 3 3 3 3 3 3 3 3 4 4 4 4 4 5 5 4 4 4 4 4 4 4 4 4 4 4 5 5 5 5 5 5 5 5 5 5 5 6 6 6 6 6 6 6 7 9 9 20 15 83 0 69 0 33 15 55 21 0 0 0 0 0 0 0 0 0 0 0 0 0 0 0 0 0 0 0 0 0 0 16 14 11 11 16 39 13 13 17 14 18 7 5 5 4 4 4 4 4 4 3 3 3 3 3 3 3 3 4 2 2 2 2 2 2 2 
2 2 2 2 2 3 3 3 3 3 3 3 3 3 3 3 3 3 4 4 4 4 4 4 5 5 4 4 4 4 4 4 4 4 4 5 5 5 6 5 5 5 5 5 5 5 5 6 7 6 6 6 6 6 7 7 8 10 14 20 0 0 0 41 24 0 0 0 0 0 0 0 0 0 0 0 0 0 0 0 0 0 0 0 0 0 0 0 0 27 0 14 64 24 81 25 34 0 46 10 7 6 6 4 4 4 4 4 4 4 4 4 4 4 4 4 4 4 5 2 2 2 2 2 2 
2 2 2 2 2 3 3 3 3 3 3 3 3 3 3 3 3 3 4 4 4 4 4 4 5 5 5 4 4 4 4 4 4 4 4 5 5 5 6 5 5 5 5 5 5 5 5 6 6 6 6 6 6 6 7 8 10 10 20 64 0 0 0 72 0 0 0 0 0 0 0 0 0 0 0 0 0 0 0 0 0 0 0 0 0 0 0 0 0 0 0 0 26 0 0 0 0 89 12 17 6 6 5 5 4 4 4 4 4 4 4 4 4 4 4 5 4 4 4 2 2 2 2 2 2 
2 2 2 2 2 3 3 3 3 3 3 3 3 3 3 3 3 3 4 4 4 4 4 4 5 5 5 5 4 4 4 4 4 4 5 5 5 5 6 6 5 5 5 5 5 5 5 6 6 7 7 6 6 7 8 8 9 10 13 17 64 0 0 0 0 0 0 0 0 0 0 0 0 0 0 0 0 0 0 0 0 0 0 0 0 0 0 0 0 0 0 0 43 0 0 0 0 14 10 8 7 6 5 5 5 4 4 4 4 4 4 4 5 4 4 4 4 4 4 2 2 2 2 2 2 
2 2 2 2 3 3 3 3 3 3 3 3 3 3 3 3 3 3 4 4 4 4 4 4 4 5 6 5 5 5 4 4 5 5 5 5 5 5 6 6 5 5 5 5 5 5 5 6 6 6 7 7 7 7 9 9 10 13 14 17 22 0 0 0 0 0 0 0 0 0 0 0 0 0 0 0 0 0 0 0 0 0 0 0 0 0 0 0 0 0 0 0 0 0 0 0 0 33 9 7 7 6 5 5 5 5 5 5 5 5 5 4 4 4 4 4 4 3 3 3 2 2 2 2 2 
2 2 2 2 3 3 3 3 3 3 3 3 3 3 3 3 3 4 4 4 4 4 4 4 4 5 5 6 5 5 5 6 6 5 5 5 5 6 6 6 6 5 5 5 5 5 6 6 6 6 7 8 8 9 11 24 15 13 55 42 0 0 0 0 0 0 0 0 0 0 0 0 0 0 0 0 0 0 0 0 0 0 0 0 0 0 0 0 0 0 0 0 0 0 0 47 38 11 8 7 6 6 6 5 5 6 5 5 4 4 4 4 4 4 4 4 3 3 3 3 2 2 2 2 2 
2 2 2 3 3 3 3 3 3 3 3 3 3 3 3 3 3 4 4 4 4 4 4 4 4 5 5 6 6 5 6 6 6 6 5 5 6 6 6 7 6 6 6 6 7 6 6 6 6 7 7 7 8 14 25 34 57 38 24 0 0 0 0 0 0 0 0 0 0 0 0 0 0 0 0 0 0 0 0 0 0 0 0 0 0 0 0 0 0 0 0 0 0 0 0 19 13 10 9 8 7 6 6 6 5 5 5 4 4 4 4 4 4 4 3 3 3 3 3 3 3 2 2 2 2 
2 2 2 3 3 3 3 3 3 3 3 3 3 3 3 3 4 4 4 4 4 4 4 4 4 5 5 5 7 9 8 7 6 6 6 7 6 6 6 7 6 6 6 6 7 7 7 6 8 7 7 8 10 12 58 40 0 0 0 0 0 0 0 0 0 0 0 0 0 0 0 0 0 0 0 0 0 0 0 0 0 0 0 0 0 0 0 0 0 0 0 0 0 0 0 0 16 41 10 8 7 8 6 5 5 5 4 4 4 4 4 4 4 3 3 3 3 3 3 3 3 2 2 2 2 
2 2 3 3 3 3 3 3 3 3 3 3 3 3 3 3 4 4 4 4 4 4 4 4 5 5 5 6 8 19 10 8 7 6 7 7 6 6 7 7 7 6 6 7 7 7 7 7 7 9 8 8 9 11 13 50 0 0 0 0 0 0 0 0 0 0 0 0 0 0 0 0 0 0 0 0 0 0 0 0 0 0 0 0 0 0 0 0 0 0 0 0 0 0 0 0 0 70 10 9 8 9 6 5 5 4 4 4 4 4 4 4 4 3 3 3 3 3 3 3 3 3 2 2 2 
2 4 4 3 3 3 3 3 3 3 3 3 3 3 5 5 5 4 4 4 4 4 4 4 6 6 6 6 7 9 15 9 8 7 7 7 7 7 8 9 9 8 7 7 8 7 7 7 7 8 9 9 10 11 14 17 33 0 0 0 0 0 0 0 0 0 0 0 0 0 0 0 0 0 0 0 0 0 0 0 0 0 0 0 0 0 0 0 0 0 0 0 0 0 0 0 0 28 13 12 11 14 7 6 5 4 4 4 4 4 4 4 3 3 3 3 3 3 3 3 3 3 3 2 2 
5 4 4 4 4 4 3 3 3 3 3 3 3 4 4 5 5 5 5 4 4 4 5 5 5 6 6 6 7 10 16 10 8 9 8 8 7 8 10 11 21 8 9 8 8 8 7 7 8 8 9 11 12 22 21 0 0 0 0 0 0 0 0 0 0 0 0 0 0 0 0 0 0 0 0 0 0 0 0 0 0 0 0 0 0 0 0 0 0 0 0 0 0 0 0 0 0 94 0 41 15 16 8 7 6 4 4 4 4 4 4 3 3 3 3 3 3 3 3 3 3 3 3 3 2 
4 5 4 4 4 4 4 4 4 4 4 4 4 4 4 5 5 5 5 5 5 5 5 5 5 6 6 7 8 11 22 11 11 9 10 10 9 9 10 29 12 10 9 10 9 8 8 9 8 8 9 11 14 43 0 69 0 0 0 0 0 0 0 0 0 0 0 0 0 0 0 0 0 0 0 0 0 0 0 0 0 0 0 0 0 0 0 0 0 0 0 0 0 0 0 0 0 0 0 0 38 23 9 6 5 5 4 4 4 4 4 3 3 3 3 3 3 3 3 3 3 3 3 3 3 
4 4 5 4 4 4 4 4 4 4 4 4 4 4 4 4 5 5 5 5 5 5 5 5 5 6 6 6 7 9 15 17 19 15 15 12 11 11 11 16 28 30 12 11 22 10 9 10 9 9 10 10 12 18 0 0 0 0 0 0 0 0 0 0 0 0 0 0 0 0 0 0 0 0 0 0 0 0 0 0 0 0 0 0 0 0 0 0 0 0 0 0 0 0 0 0 0 0 0 60 14 12 7 6 5 5 4 4 4 4 3 3 3 3 3 3 3 3 3 3 3 3 3 3 3 
4 4 4 5 4 4 4 4 4 4 4 4 4 4 4 4 5 5 6 5 5 5 5 5 5 6 6 6 8 8 10 11 14 31 52 16 15 12 13 14 21 38 14 16 16 12 10 10 9 10 10 12 16 0 0 0 0 0 0 0 0 0 0 0 0 0 0 0 0 0 0 0 0 0 0 0 0 0 0 0 0 0 0 0 0 0 0 0 0 0 0 0 0 0 0 0 0 0 21 14 9 9 6 6 5 5 5 5 4 4 3 3 3 3 3 3 3 3 3 3 3 3 3 3 3 
3 4 4 4 5 4 4 4 4 4 4 4 4 4 4 4 5 5 5 6 5 5 5 5 5 7 7 7 7 8 9 11 12 17 56 0 24 16 20 19 63 0 20 18 33 16 15 13 11 11 12 12 20 0 0 0 0 0 0 0 0 0 0 0 0 0 0 0 0 0 0 0 0 0 0 0 0 0 0 0 0 0 0 0 0 0 0 0 0 0 0 0 0 0 0 0 0 0 0 14 9 8 7 7 6 6 5 5 5 5 3 3 3 3 3 3 3 3 3 3 3 3 3 3 3 
3 4 4 4 4 5 4 4 4 4 4 4 4 4 4 4 5 5 5 6 6 6 6 6 6 7 8 7 7 9 10 11 14 36 0 0 0 28 74 66 0 0 0 97 0 21 25 14 13 11 12 13 0 0 0 0 0 0 0 0 0 0 0 0 0 0 0 0 0 0 0 0 0 0 0 0 0 0 0 0 0 0 0 0 0 0 0 0 0 0 0 0 0 0 0 0 0 0 0 14 12 10 6 6 5 5 5 5 5 5 3 3 3 3 3 3 3 3 3 3 3 3 3 3 3 
3 4 4 4 4 5 5 4 4 4 4 4 4 4 4 5 5 5 5 6 6 6 6 6 6 7 7 9 8 9 11 11 14 19 0 0 68 0 0 0 0 0 0 0 0 0 0 22 15 14 13 14 25 0 0 0 0 0 0 0 0 0 0 0 0 0 0 0 0 0 0 0 0 0 0 0 0 0 0 0 0 0 0 0 0 0 0 0 0 0 0 0 0 0 0 0 0 0 60 0 19 10 7 5 5 5 5 5 4 4 4 3 3 3 3 3 3 3 3 3 3 3 3 3 3 
3 4 4 4 4 4 5 5 4 4 4 4 4 4 4 5 5 5 5 5 6 7 7 6 6 7 7 8 9 12 11 13 16 21 80 0 0 0 0 0 0 0 0 0 0 0 0 88 24 15 15 17 0 0 0 0 0 0 0 0 0 0 0 0 0 0 0 0 0 0 0 0 0 0 0 0 0 0 0 0 0 0 0 0 0 0 0 0 0 0 0 0 0 0 0 0 0 0 0 36 25 8 6 5 5 5 4 4 4 4 4 3 3 3 3 3 3 3 3 3 3 3 3 3 3 
3 4 4 4 4 4 5 5 5 5 4 4 4 6 5 5 5 5 5 6 6 6 7 7 8 8 9 8 10 15 17 23 22 0 0 0 0 0 0 0 0 0 0 0 0 0 0 0 0 29 17 19 70 0 0 0 0 0 0 0 0 0 0 0 0 0 0 0 0 0 0 0 0 0 0 0 0 0 0 0 0 0 0 0 0 0 0 0 0 0 0 0 0 0 0 0 0 0 0 12 9 7 6 6 5 5 4 4 4 4 4 3 3 3 3 3 3 3 3 3 3 3 3 3 3 
3 4 4 4 4 4 5 5 5 5 5 5 5 6 6 5 5 5 5 6 6 6 7 19 10 8 9 9 11 11 15 29 0 0 0 0 0 0 0 0 0 0 0 0 0 0 0 0 0 0 21 21 0 0 0 0 0 0 0 0 0 0 0 0 0 0 0 0 0 0 0 0 0 0 0 0 0 0 0 0 0 0 0 0 0 0 0 0 0 0 0 0 0 0 0 0 0 0 0 15 9 7 7 6 6 4 4 4 4 4 4 4 3 3 3 3 3 3 3 3 3 3 3 3 3 
3 4 4 4 4 4 5 5 6 5 5 5 5 6 6 6 6 6 7 7 7 7 9 11 15 10 10 11 11 13 16 24 0 0 0 0 0 0 0 0 0 0 0 0 0 0 0 0 0 0 33 24 0 0 0 0 0 0 0 0 0 0 0 0 0 0 0 0 0 0 0 0 0 0 0 0 0 0 0 0 0 0 0 0 0 0 0 0 0 0 0 0 0 0 0 0 0 0 44 27 8 6 6 6 5 4 4 4 4 4 4 4 4 3 3 3 3 3 3 3 3 3 3 3 3 
4 4 4 4 4 5 5 5 7 6 5 5 6 6 7 6 6 6 7 8 7 7 8 11 14 14 12 19 13 15 19 0 0 0 0 0 0 0 0 0 0 0 0 0 0 0 0 0 0 0 0 29 0 0 0 0 0 0 0 0 0 0 0 0 0 0 0 0 0 0 0 0 0 0 0 0 0 0 0 0 0 0 0 0 0 0 0 0 0 0 0 0 0 0 0 0 0 0 17 9 7 6 5 5 5 4 4 4 4 4 4 4 4 4 3 3 3 3 3 3 3 3 3 3 3 
6 5 5 5 6 5 5 5 6 6 6 6 6 6 7 7 6 6 7 8 8 8 9 10 12 25 18 25 18 18 23 0 0 0 0 0 0 0 0 0 0 0 0 0 0 0 0 0 0 0 0 37 0 0 0 0 0 0 0 0 0 0 0 0 0 0 0 0 0 0 0 0 0 0 0 0 0 0 0 0 0 0 0 0 0 0 0 0 0 0 0 0 0 0 0 0 0 34 11 7 7 7 5 5 5 5 4 4 4 4 4 4 4 4 4 4 3 3 3 3 3 3 3 3 3 
5 5 5 5 6 6 6 7 8 8 7 7 7 7 7 7 7 8 7 8 10 9 10 11 14 18 52 75 0 0 28 0 0 0 0 0 0 0 0 0 0 0 0 0 0 0 0 0 0 0 0 52 0 0 0 0 0 0 0 0 0 0 0 0 0 0 0 0 0 0 0 0 0 0 0 0 0 0 0 0 0 0 0 0 0 0 0 0 0 0 0 0 0 0 0 0 0 14 8 8 6 6 5 5 5 5 5 4 4 4 4 4 4 4 4 4 4 4 4 3 3 3 3 3 3 
5 6 6 6 6 7 6 7 8 11 10 8 8 8 9 9 8 8 9 9 11 13 12 14 31 24 0 0 0 0 44 0 0 0 0 0 0 0 0 0 0 0 0 0 0 0 0 0 0 0 0 0 0 0 0 0 0 0 0 0 0 0 0 0 0 0 0 0 0 0 0 0 0 0 0 0 0 0 0 0 0 0 0 0 0 0 0 0 0 0 0 0 0 0 0 0 15 9 7 7 6 6 6 5 5 5 5 5 4 4 4 4 4 4 4 4 4 4 4 4 4 4 4 3 3 
6 7 8 8 8 8 9 9 14 0 11 10 10 10 13 13 11 11 10 14 13 18 37 19 34 0 0 0 0 0 0 0 0 0 0 0 0 0 0 0 0 0 0 0 0 0 0 0 0 0 0 0 0 0 0 0 0 0 0 0 0 0 0 0 0 0 0 0 0 0 0 0 0 0 0 0 0 0 0 0 0 0 0 0 0 0 0 0 0 0 0 0 0 0 0 13 10 9 8 7 7 6 6 6 6 5 5 5 5 5 5 5 4 4 4 4 4 4 4 4 4 4 4 4 4 
6 7 8 8 8 8 9 9 14 0 11 10 10 10 13 13 11 11 10 14 13 18 37 19 34 0 0 0 0 0 0 0 0 0 0 0 0 0 0 0 0 0 0 0 0 0 0 0 0 0 0 0 0 0 0 0 0 0 0 0 0 0 0 0 0 0 0 0 0 0 0 0 0 0 0 0 0 0 0 0 0 0 0 0 0 0 0 0 0 0 0 0 0 0 0 13 10 9 8 7 7 6 6 6 6 5 5 5 5 5 5 5 4 4 4 4 4 4 4 4 4 4 4 4 4 
5 6 6 6 6 7 6 7 8 11 10 8 8 8 9 9 8 8 9 9 11 13 12 14 31 24 0 0 0 0 44 0 0 0 0 0 0 0 0 0 0 0 0 0 0 0 0 0 0 0 0 0 0 0 0 0 0 0 0 0 0 0 0 0 0 0 0 0 0 0 0 0 0 0 0 0 0 0 0 0 0 0 0 0 0 0 0 0 0 0 0 0 0 0 0 0 15 9 7 7 6 6 6 5 5 5 5 5 4 4 4 4 4 4 4 4 4 4 4 4 4 4 4 3 3 
5 5 5 5 6 6 6 7 8 8 7 7 7 7 7 7 7 8 7 8 10 9 10 11 14 18 52 75 0 0 28 0 0 0 0 0 0 0 0 0 0 0 0 0 0 0 0 0 0 0 0 52 0 0 0 0 0 0 0 0 0 0 0 0 0 0 0 0 0 0 0 0 0 0 0 0 0 0 0 0 0 0 0 0 0 0 0 0 0 0 0 0 0 0 0 0 0 14 8 8 6 6 5 5 5 5 5 4 4 4 4 4 4 4 4 4 4 4 4 3 3 3 3 3 3 
6 5 5 5 6 5 5 5 6 6 6 6 6 6 7 7 6 6 7 8 8 8 9 10 12 25 18 25 18 18 23 0 0 0 0 0 0 0 0 0 0 0 0 0 0 0 0 0 0 0 0 37 0 0 0 0 0 0 0 0 0 0 0 0 0 0 0 0 0 0 0 0 0 0 0 0 0 0 0 0 0 0 0 0 0 0 0 0 0 0 0 0 0 0 0 0 0 34 11 7 7 7 5 5 5 5 4 4 4 4 4 4 4 4 4 4 3 3 3 3 3 3 3 3 3 
4 4 4 4 4 5 5 5 7 6 5 5 6 6 7 6 6 6 7 8 7 7 8 11 14 14 12 19 13 15 19 0 0 0 0 0 0 0 0 0 0 0 0 0 0 0 0 0 0 0 0 29 0 0 0 0 0 0 0 0 0 0 0 0 0 0 0 0 0 0 0 0 0 0 0 0 0 0 0 0 0 0 0 0 0 0 0 0 0 0 0 0 0 0 0 0 0 0 17 9 7 6 5 5 5 4 4 4 4 4 4 4 4 4 3 3 3 3 3 3 3 3 3 3 3 
3 4 4 4 4 4 5 5 6 5 5 5 5 6 6 6 6 6 7 7 7 7 9 11 15 10 10 11 11 13 16 24 0 0 0 0 0 0 0 0 0 0 0 0 0 0 0 0 0 0 33 24 0 0 0 0 0 0 0 0 0 0 0 0 0 0 0 0 0 0 0 0 0 0 0 0 0 0 0 0 0 0 0 0 0 0 0 0 0 0 0 0 0 0 0 0 0 0 44 27 8 6 6 6 5 4 4 4 4 4 4 4 4 3 3 3 3 3 3 3 3 3 3 3 3 
3 4 4 4 4 4 5 5 5 5 5 5 5 6 6 5 5 5 5 6 6 6 7 19 10 8 9 9 11 11 15 29 0 0 0 0 0 0 0 0 0 0 0 0 0 0 0 0 0 0 21 21 0 0 0 0 0 0 0 0 0 0 0 0 0 0 0 0 0 0 0 0 0 0 0 0 0 0 0 0 0 0 0 0 0 0 0 0 0 0 0 0 0 0 0 0 0 0 0 15 9 7 7 6 6 4 4 4 4 4 4 4 3 3 3 3 3 3 3 3 3 3 3 3 3 
3 4 4 4 4 4 5 5 5 5 4 4 4 6 5 5 5 5 5 6 6 6 7 7 8 8 9 8 10 15 17 23 22 0 0 0 0 0 0 0 0 0 0 0 0 0 0 0 0 29 17 19 70 0 0 0 0 0 0 0 0 0 0 0 0 0 0 0 0 0 0 0 0 0 0 0 0 0 0 0 0 0 0 0 0 0 0 0 0 0 0 0 0 0 0 0 0 0 0 12 9 7 6 6 5 5 4 4 4 4 4 3 3 3 3 3 3 3 3 3 3 3 3 3 3 
3 4 4 4 4 4 5 5 4 4 4 4 4 4 4 5 5 5 5 5 6 7 7 6 6 7 7 8 9 12 11 13 16 21 80 0 0 0 0 0 0 0 0 0 0 0 0 88 24 15 15 17 0 0 0 0 0 0 0 0 0 0 0 0 0 0 0 0 0 0 0 0 0 0 0 0 0 0 0 0 0 0 0 0 0 0 0 0 0 0 0 0 0 0 0 0 0 0 0 36 25 8 6 5 5 5 4 4 4 4 4 3 3 3 3 3 3 3 3 3 3 3 3 3 3 
3 4 4 4 4 5 5 4 4 4 4 4 4 4 4 5 5 5 5 6 6 6 6 6 6 7 7 9 8 9 11 11 14 19 0 0 68 0 0 0 0 0 0 0 0 0 0 22 15 14 13 14 25 0 0 0 0 0 0 0 0 0 0 0 0 0 0 0 0 0 0 0 0 0 0 0 0 0 0 0 0 0 0 0 0 0 0 0 0 0 0 0 0 0 0 0 0 0 60 0 19 10 7 5 5 5 5 5 4 4 4 3 3 3 3 3 3 3 3 3 3 3 3 3 3 
3 4 4 4 4 5 4 4 4 4 4 4 4 4 4 4 5 5 5 6 6 6 6 6 6 7 8 7 7 9 10 11 14 36 0 0 0 28 74 66 0 0 0 97 0 21 25 14 13 11 12 13 0 0 0 0 0 0 0 0 0 0 0 0 0 0 0 0 0 0 0 0 0 0 0 0 0 0 0 0 0 0 0 0 0 0 0 0 0 0 0 0 0 0 0 0 0 0 0 14 12 10 6 6 5 5 5 5 5 5 3 3 3 3 3 3 3 3 3 3 3 3 3 3 3 
3 4 4 4 5 4 4 4 4 4 4 4 4 4 4 4 5 5 5 6 5 5 5 5 5 7 7 7 7 8 9 11 12 17 56 0 24 16 20 19 63 0 20 18 33 16 15 13 11 11 12 12 20 0 0 0 0 0 0 0 0 0 0 0 0 0 0 0 0 0 0 0 0 0 0 0 0 0 0 0 0 0 0 0 0 0 0 0 0 0 0 0 0 0 0 0 0 0 0 14 9 8 7 7 6 6 5 5 5 5 3 3 3 3 3 3 3 3 3 3 3 3 3 3 3 
4 4 4 5 4 4 4 4 4 4 4 4 4 4 4 4 5 5 6 5 5 5 5 5 5 6 6 6 8 8 10 11 14 31 52 16 15 12 13 14 21 38 14 16 16 12 10 10 9 10 10 12 16 0 0 0 0 0 0 0 0 0 0 0 0 0 0 0 0 0 0 0 0 0 0 0 0 0 0 0 0 0 0 0 0 0 0 0 0 0 0 0 0 0 0 0 0 0 21 14 9 9 6 6 5 5 5 5 4 4 3 3 3 3 3 3 3 3 3 3 3 3 3 3 3 
4 4 5 4 4 4 4 4 4 4 4 4 4 4 4 4 5 5 5 5 5 5 5 5 5 6 6 6 7 9 15 17 19 15 15 12 11 11 11 16 28 30 12 11 22 10 9 10 9 9 10 10 12 18 0 0 0 0 0 0 0 0 0 0 0 0 0 0 0 0 0 0 0 0 0 0 0 0 0 0 0 0 0 0 0 0 0 0 0 0 0 0 0 0 0 0 0 0 0 60 14 12 7 6 5 5 4 4 4 4 3 3 3 3 3 3 3 3 3 3 3 3 3 3 3 
4 5 4 4 4 4 4 4 4 4 4 4 4 4 4 5 5 5 5 5 5 5 5 5 5 6 6 7 8 11 22 11 11 9 10 10 9 9 10 29 12 10 9 10 9 8 8 9 8 8 9 11 14 43 0 69 0 0 0 0 0 0 0 0 0 0 0 0 0 0 0 0 0 0 0 0 0 0 0 0 0 0 0 0 0 0 0 0 0 0 0 0 0 0 0 0 0 0 0 0 38 23 9 6 5 5 4 4 4 4 4 3 3 3 3 3 3 3 3 3 3 3 3 3 3 
5 4 4 4 4 4 3 3 3 3 3 3 3 4 4 5 5 5 5 4 4 4 5 5 5 6 6 6 7 10 16 10 8 9 8 8 7 8 10 11 21 8 9 8 8 8 7 7 8 8 9 11 12 22 21 0 0 0 0 0 0 0 0 0 0 0 0 0 0 0 0 0 0 0 0 0 0 0 0 0 0 0 0 0 0 0 0 0 0 0 0 0 0 0 0 0 0 94 0 41 15 16 8 7 6 4 4 4 4 4 4 3 3 3 3 3 3 3 3 3 3 3 3 3 2 
2 4 4 3 3 3 3 3 3 3 3 3 3 3 5 5 5 4 4 4 4 4 4 4 6 6 6 6 7 9 15 9 8 7 7 7 7 7 8 9 9 8 7 7 8 7 7 7 7 8 9 9 10 11 14 17 33 0 0 0 0 0 0 0 0 0 0 0 0 0 0 0 0 0 0 0 0 0 0 0 0 0 0 0 0 0 0 0 0 0 0 0 0 0 0 0 0 28 13 12 11 14 7 6 5 4 4 4 4 4 4 4 3 3 3 3 3 3 3 3 3 3 3 2 2 
2 2 3 3 3 3 3 3 3 3 3 3 3 3 3 3 4 4 4 4 4 4 4 4 5 5 5 6 8 19 10 8 7 6 7 7 6 6 7 7 7 6 6 7 7 7 7 7 7 9 8 8 9 11 13 50 0 0 0 0 0 0 0 0 0 0 0 0 0 0 0 0 0 0 0 0 0 0 0 0 0 0 0 0 0 0 0 0 0 0 0 0 0 0 0 0 0 70 10 9 8 9 6 5 5 4 4 4 4 4 4 4 4 3 3 3 3 3 3 3 3 3 2 2 2 
2 2 2 3 3 3 3 3 3 3 3 3 3 3 3 3 4 4 4 4 4 4 4 4 4 5 5 5 7 9 8 7 6 6 6 7 6 6 6 7 6 6 6 6 7 7 7 6 8 7 7 8 10 12 58 40 0 0 0 0 0 0 0 0 0 0 0 0 0 0 0 0 0 0 0 0 0 0 0 0 0 0 0 0 0 0 0 0 0 0 0 0 0 0 0 0 16 41 10 8 7 8 6 5 5 5 4 4 4 4 4 4 4 3 3 3 3 3 3 3 3 2 2 2 2 
2 2 2 3 3 3 3 3 3 3 3 3 3 3 3 3 3 4 4 4 4 4 4 4 4 5 5 6 6 5 6 6 6 6 5 5 6 6 6 7 6 6 6 6 7 6 6 6 6 7 7 7 8 14 25 34 57 38 24 0 0 0 0 0 0 0 0 0 0 0 0 0 0 0 0 0 0 0 0 0 0 0 0 0 0 0 0 0 0 0 0 0 0 0 0 19 13 10 9 8 7 6 6 6 5 5 5 4 4 4 4 4 4 4 3 3 3 3 3 3 3 2 2 2 2 
2 2 2 2 3 3 3 3 3 3 3 3 3 3 3 3 3 4 4 4 4 4 4 4 4 5 5 6 5 5 5 6 6 5 5 5 5 6 6 6 6 5 5 5 5 5 6 6 6 6 7 8 8 9 11 24 15 13 55 42 0 0 0 0 0 0 0 0 0 0 0 0 0 0 0 0 0 0 0 0 0 0 0 0 0 0 0 0 0 0 0 0 0 0 0 47 38 11 8 7 6 6 6 5 5 6 5 5 4 4 4 4 4 4 4 4 3 3 3 3 2 2 2 2 2 
2 2 2 2 3 3 3 3 3 3 3 3 3 3 3 3 3 3 4 4 4 4 4 4 4 5 6 5 5 5 4 4 5 5 5 5 5 5 6 6 5 5 5 5 5 5 5 6 6 6 7 7 7 7 9 9 10 13 14 17 22 0 0 0 0 0 0 0 0 0 0 0 0 0 0 0 0 0 0 0 0 0 0 0 0 0 0 0 0 0 0 0 0 0 0 0 0 33 9 7 7 6 5 5 5 5 5 5 5 5 5 4 4 4 4 4 4 3 3 3 2 2 2 2 2 
2 2 2 2 2 3 3 3 3 3 3 3 3 3 3 3 3 3 4 4 4 4 4 4 5 5 5 5 4 4 4 4 4 4 5 5 5 5 6 6 5 5 5 5 5 5 5 6 6 7 7 6 6 7 8 8 9 10 13 17 64 0 0 0 0 0 0 0 0 0 0 0 0 0 0 0 0 0 0 0 0 0 0 0 0 0 0 0 0 0 0 0 43 0 0 0 0 14 10 8 7 6 5 5 5 4 4 4 4 4 4 4 5 4 4 4 4 4 4 2 2 2 2 2 2 
2 2 2 2 2 3 3 3 3 3 3 3 3 3 3 3 3 3 4 4 4 4 4 4 5 5 5 4 4 4 4 4 4 4 4 5 5 5 6 5 5 5 5 5 5 5 5 6 6 6 6 6 6 6 7 8 10 10 20 64 0 0 0 72 0 0 0 0 0 0 0 0 0 0 0 0 0 0 0 0 0 0 0 0 0 0 0 0 0 0 0 0 26 0 0 0 0 89 12 17 6 6 5 5 4 4 4 4 4 4 4 4 4 4 4 5 4 4 4 2 2 2 2 2 2 
2 2 2 2 2 3 3 3 3 3 3 3 3 3 3 3 3 3 4 4 4 4 4 4 5 5 4 4 4 4 4 4 4 4 4 5 5 5 6 5 5 5 5 5 5 5 5 6 7 6 6 6 6 6 7 7 8 10 14 20 0 0 0 41 24 0 0 0 0 0 0 0 0 0 0 0 0 0 0 0 0 0 0 0 0 0 0 0 0 27 0 14 64 24 81 25 34 0 46 10 7 6 6 4 4 4 4 4 4 4 4 4 4 4 4 4 4 4 5 2 2 2 2 2 2 
2 2 2 2 2 2 3 3 3 3 3 3 3 3 3 3 3 3 4 4 4 4 4 5 5 4 4 4 4 4 4 4 4 4 4 4 5 5 5 5 5 5 5 5 5 5 5 6 6 6 6 6 6 6 7 9 9 20 15 83 0 69 0 33 15 55 21 0 0 0 0 0 0 0 0 0 0 0 0 0 0 0 0 0 0 0 0 0 0 16 14 11 11 16 39 13 13 17 14 18 7 5 5 4 4 4 4 4 4 3 3 3 3 3 3 3 3 4 2 2 2 2 2 2 2 
2 2 2 2 2 2 3 3 3 3 3 3 3 3 3 3 3 3 4 4 4 4 4 5 4 4 4 4 4 4 4 4 4 4 4 4 5 6 5 5 5 5 5 5 5 5 6 6 5 5 5 5 6 7 7 7 9 14 29 26 23 17 37 17 12 13 20 0 92 0 0 0 0 0 0 0 0 0 0 0 0 0 0 0 65 38 19 0 0 17 10 9 10 11 10 10 10 15 12 8 6 5 5 5 4 4 4 3 3 3 3 3 3 3 3 3 3 3 2 2 2 2 2 2 2 
2 2 2 2 2 2 3 3 3 3 3 3 3 3 3 3 3 3 4 4 4 4 5 4 4 4 4 4 4 4 4 4 4 4 4 4 5 5 5 5 5 4 4 4 4 4 4 5 5 5 5 5 5 6 6 7 9 12 52 25 52 13 11 10 10 11 19 53 17 45 58 25 23 25 28 36 0 0 0 41 0 0 0 60 38 36 13 16 45 17 9 8 9 8 8 8 9 15 11 8 6 6 5 5 4 3 3 3 3 3 3 3 3 3 3 3 3 3 2 2 2 2 2 2 2 
2 2 2 2 2 2 3 3 3 3 3 3 3 3 3 3 3 4 4 4 4 4 4 4 4 4 4 4 3 3 3 3 3 3 3 3 3 5 5 4 4 4 4 4 4 4 4 4 5 5 5 5 5 6 6 7 10 17 10 18 14 14 9 9 9 9 75 15 12 12 13 14 14 18 50 0 0 0 0 0 0 18 16 13 12 11 10 10 24 10 8 7 8 7 7 8 8 11 19 7 5 5 5 5 3 3 3 3 3 3 3 3 3 3 3 3 3 3 2 2 2 2 2 2 2 
2 2 2 2 2 2 3 3 3 3 3 3 3 3 3 3 3 4 4 4 4 4 4 4 4 4 3 3 3 3 3 3 3 3 3 3 3 3 3 4 4 4 4 4 4 4 4 4 5 5 5 5 5 6 6 7 8 9 8 8 10 9 8 9 8 9 8 10 9 10 10 12 14 0 0 0 0 0 0 0 0 31 15 11 10 9 9 9 8 7 8 7 7 7 6 6 7 12 7 6 5 5 5 5 3 3 3 3 3 3 3 3 3 3 3 3 3 3 2 2 2 2 2 2 2 
2 2 2 2 2 2 3 3 3 3 3 3 3 3 3 3 3 4 4 4 5 4 4 4 4 3 3 3 3 3 3 3 3 3 3 3 3 3 3 3 4 4 4 4 4 4 4 4 4 5 5 5 5 6 6 6 6 7 6 7 8 7 8 7 8 8 7 9 8 9 10 11 18 50 0 0 0 0 0 0 0 0 18 11 9 9 8 8 7 7 6 6 6 7 6 6 7 6 5 6 4 4 4 3 3 3 3 3 3 3 3 3 3 3 3 3 3 3 2 2 2 2 2 2 2 
2 2 2 2 2 2 3 3 3 3 3 3 3 3 3 3 3 4 4 4 4 4 4 3 3 3 3 3 3 3 3 3 3 3 3 3 3 3 3 3 3 4 4 4 4 4 4 4 4 5 5 5 6 6 5 5 5 5 6 6 7 6 6 7 7 7 7 7 8 9 11 15 35 0 0 0 0 0 0 0 0 0 27 13 9 8 7 7 8 7 6 6 6 5 5 6 7 5 5 4 4 4 4 3 3 3 3 3 3 3 3 3 3 3 3 3 3 3 2 2 2 2 2 2 2 
2 2 2 2 2 2 3 3 3 3 3 3 3 3 3 3 4 4 4 4 4 4 3 3 3 3 3 3 3 3 3 3 3 3 3 3 3 3 3 3 3 3 4 4 4 4 4 4 4 5 5 5 6 5 5 5 5 5 6 6 6 6 6 6 7 7 7 7 9 8 9 11 51 42 0 0 0 0 0 0 0 56 18 12 10 8 7 7 7 7 6 6 5 5 5 5 6 5 5 4 4 4 4 3 3 3 3 3 3 3 3 3 3 3 3 3 3 3 2 2 2 2 2 2 2 
2 2 2 2 2 2 3 3 3 3 3 3 3 3 3 3 4 4 4 4 4 3 3 3 3 3 3 3 3 3 3 3 3 3 3 3 3 3 3 3 3 3 4 4 4 4 4 4 4 5 5 6 5 5 5 5 5 5 5 7 6 6 6 6 7 6 6 8 7 8 9 11 14 51 0 0 0 0 0 0 0 0 45 12 11 7 7 6 6 6 6 6 5 5 5 5 5 5 5 4 4 4 4 3 3 3 3 3 3 3 3 3 3 3 3 3 3 3 2 2 2 2 2 2 2 
2 2 2 2 2 2 3 3 3 3 3 3 3 3 3 4 4 4 4 4 3 3 3 3 3 3 3 3 3 3 3 3 3 3 3 3 3 3 3 3 3 3 3 4 4 4 4 4 4 5 5 5 5 5 4 4 4 4 4 4 5 5 5 5 6 6 6 6 7 8 9 13 16 32 75 0 0 0 0 0 67 41 19 45 13 7 7 6 6 6 6 6 5 5 5 5 5 5 5 4 4 4 4 3 3 3 3 3 3 3 3 3 3 3 3 3 3 3 2 2 2 2 2 2 2 
2 2 2 2 2 2 3 3 3 3 3 3 3 3 3 4 4 4 4 3 3 3 3 3 3 3 3 3 3 3 3 3 3 3 3 3 3 3 3 3 3 3 3 4 4 4 4 4 4 5 5 5 4 4 4 4 4 4 4 4 4 5 5 5 5 6 6 6 7 8 16 30 19 17 16 28 30 0 0 24 21 13 15 17 9 7 8 5 5 5 5 6 5 4 4 4 5 5 6 4 4 4 4 3 3 3 3 3 3 3 3 3 3 3 3 3 3 3 2 2 2 2 2 2 2 
2 2 2 2 2 3 3 3 3 3 3 3 3 3 4 4 4 4 3 3 3 3 3 3 3 3 3 3 3 3 3 3 3 3 3 3 3 3 3 3 3 3 3 4 4 4 4 4 5 5 5 4 4 4 4 4 4 4 4 4 4 5 5 5 5 6 6 8 6 6 8 9 13 14 12 14 38 0 0 24 14 11 11 11 8 6 5 5 5 5 5 5 4 4 4 4 4 4 5 5 4 4 4 3 3 3 3 3 3 3 3 3 3 3 3 3 3 3 3 2 2 2 2 2 2 
2 2 2 2 2 3 3 3 3 3 3 3 3 3 4 4 4 3 3 3 3 3 3 3 3 3 3 3 3 3 3 3 3 3 3 3 3 3 3 3 3 3 3 4 4 4 4 4 5 5 4 4 4 4 4 4 4 4 4 4 4 4 5 5 5 6 7 6 6 6 7 8 10 10 10 14 22 32 0 18 14 10 8 8 7 6 5 5 5 5 5 4 4 4 4 4 4 4 4 5 5 4 4 4 3 3 3 3 3 3 3 3 3 3 3 3 3 3 3 2 2 2 2 2 2 
2 2 2 2 2 3 3 3 3 3 3 3 3 4 4 4 3 3 3 3 3 3 3 3 3 3 3 3 3 3 3 3 3 3 3 3 3 3 3 3 3 3 3 4 4 4 4 4 5 4 4 4 4 4 4 4 4 4 4 4 4 4 5 5 6 7 6 5 5 5 7 7 7 8 9 10 15 15 27 13 11 9 8 7 7 7 6 5 5 5 5 4 4 4 4 4 4 4 4 4 5 4 4 4 3 3 3 3 3 3 3 3 3 3 3 3 3 3 3 2 2 2 2 2 2 
2 2 2 2 2 3 3 3 3 3 3 3 3 4 4 3 3 3 3 3 3 3 3 3 3 3 3 3 3 3 3 3 3 3 3 3 3 3 3 3 3 3 3 4 4 4 4 5 5 4 4 4 4 4 4 4 4 4 4 4 4 4 5 5 6 5 5 5 5 5 5 7 7 8 8 8 11 13 26 13 11 9 8 7 6 6 6 6 5 5 5 4 4 4 4 4 4 4 4 4 4 4 4 4 4 3 3 3 3 3 3 3 3 3 3 3 3 3 3 2 2 2 2 2 2 
2 2 2 2 3 3 3 3 3 3 3 3 4 4 3 3 3 3 3 3 3 3 3 3 3 3 3 3 3 3 3 3 3 3 3 3 3 3 3 3 3 3 3 4 4 4 4 5 4 4 4 4 4 4 4 4 4 4 4 4 4 4 5 5 5 5 5 5 5 5 5 6 6 7 8 9 10 12 21 16 12 9 7 7 6 5 5 5 6 5 5 4 4 4 4 4 4 4 4 4 4 4 4 4 4 3 3 3 3 3 3 3 3 3 3 3 3 3 3 3 2 2 2 2 2 
2 2 2 2 3 3 3 3 3 3 3 4 4 3 3 3 3 3 3 3 3 3 3 3 3 3 3 3 3 3 3 3 3 3 3 3 3 3 3 3 3 3 3 4 4 4 5 4 4 4 4 4 4 4 4 4 4 4 4 4 4 5 5 5 5 5 5 5 5 5 5 6 7 7 8 9 12 99 12 12 20 17 8 6 6 5 5 5 5 6 5 4 4 4 4 4 4 4 4 4 4 4 4 4 4 4 3 3 3 3 3 3 3 3 3 3 3 3 3 3 2 2 2 2 2 
2 2 2 3 3 3 3 3 3 3 3 4 3 3 3 3 3 3 3 3 3 3 3 3 3 3 3 3 3 3 3 3 3 3 3 3 3 3 3 3 3 3 3 4 4 4 5 4 4 4 4 4 4 4 4 4 4 4 4 4 4 5 5 5 5 5 5 5 5 5 6 6 8 7 8 10 13 13 9 9 9 10 11 6 6 4 4 4 4 5 5 5 4 4 4 4 3 4 4 4 4 4 4 4 4 4 4 3 3 3 3 3 3 3 3 3 3 3 3 3 3 2 2 2 2 
1 1 2 3 3 3 3 3 3 3 4 3 3 3 3 3 3 3 3 3 3 3 3 3 3 3 3 3 3 3 3 3 3 3 3 3 3 3 3 3 3 3 3 4 4 4 4 4 4 4 4 4 4 4 4 4 4 4 4 4 4 5 5 5 5 4 4 4 5 5 6 6 6 6 7 13 44 9 8 7 7 8 8 5 4 4 4 4 4 4 4 5 4 3 3 3 3 3 3 3 3 4 4 4 4 4 4 3 3 3 3 3 3 3 3 3 3 3 3 3 3 2 2 2 2 
1 1 1 1 3 3 3 3 3 4 4 3 3 3 3 3 3 3 3 3 3 3 3 3 3 3 3 3 3 3 3 3 3 3 3 3 3 3 3 3 3 3 3 4 4 4 4 4 4 4 4 4 4 4 4 3 3 4 4 4 5 5 5 4 4 4 4 4 4 6 5 5 6 6 8 15 10 7 6 6 6 6 5 5 4 4 4 4 4 4 4 4 3 3 3 3 3 3 3 3 3 3 3 3 4 4 4 4 3 3 3 3 3 3 3 3 3 3 3 3 3 2 2 2 2 
1 1 1 1 1 1 3 3 4 4 3 3 3 3 3 3 3 3 3 3 3 3 3 3 3 3 3 3 3 3 3 3 3 3 3 3 3 3 3 3 3 3 4 4 4 4 4 4 4 4 4 3 3 3 3 3 3 3 3 3 5 5 4 4 4 4 4 4 4 5 5 5 7 8 8 20 9 7 6 6 5 5 6 5 4 4 4 4 4 4 4 3 3 3 3 3 3 3 3 3 3 3 3 3 3 4 4 4 4 3 3 3 3 3 3 3 3 3 3 3 3 3 2 2 2 
1 1 1 1 1 1 1 3 4 3 3 3 3 3 3 3 3 3 3 3 3 3 3 3 3 3 3 3 3 3 3 3 3 3 3 3 3 3 3 3 3 3 4 4 4 4 4 4 4 4 3 3 3 3 3 3 3 3 3 3 3 4 4 4 4 4 4 4 4 4 5 5 6 8 12 8 21 6 6 5 5 5 5 5 4 4 4 4 4 4 3 3 3 3 3 3 3 3 3 3 3 3 3 3 3 3 3 4 4 4 3 3 3 3 3 3 3 3 3 3 3 3 2 2 2 
1 1 1 1 1 1 1 1 1 3 3 3 3 3 3 3 3 3 3 3 3 3 3 3 3 3 3 3 3 3 3 3 3 3 3 3 3 3 3 3 3 3 4 4 4 4 4 4 3 3 3 3 3 3 3 3 3 3 3 3 3 3 4 4 4 4 4 4 4 4 5 5 5 5 6 6 6 5 5 6 5 5 5 5 4 4 4 4 4 4 3 3 3 3 3 3 3 3 3 3 3 3 3 3 3 3 3 3 4 4 4 3 3 3 3 3 3 3 3 3 3 3 3 2 2 
1 1 1 1 1 1 1 1 1 1 1 3 3 3 3 3 3 3 3 3 3 3 3 3 3 3 3 3 3 3 3 3 3 3 3 3 3 3 3 3 3 3 4 4 4 4 4 3 3 3 3 3 3 3 3 3 3 3 3 3 3 3 3 4 4 4 4 4 4 4 5 5 4 4 4 5 6 5 5 4 4 4 4 5 4 4 4 4 4 4 3 3 3 3 3 3 3 3 3 3 3 3 3 3 3 3 3 3 3 4 4 4 3 3 3 3 3 3 3 3 3 3 3 2 2 
1 1 1 1 1 1 1 1 1 1 1 1 3 3 3 3 3 3 3 3 3 3 3 3 3 3 3 3 3 3 3 3 3 3 3 3 3 3 3 3 3 4 4 4 4 4 3 3 3 3 3 3 3 3 3 3 3 3 3 3 3 3 3 4 4 4 4 4 4 5 5 4 4 4 4 4 5 5 4 4 4 4 4 4 5 4 4 4 4 3 3 3 3 3 3 3 3 3 3 3 3 3 3 3 3 3 3 3 3 3 3 4 4 3 3 3 3 3 3 3 3 3 3 3 2 
1 1 1 1 1 1 1 1 1 1 1 1 1 3 3 3 3 3 3 3 3 3 3 3 3 3 3 3 2 2 2 2 2 2 3 3 3 3 3 3 3 4 4 4 4 3 3 3 3 3 3 3 3 3 3 3 3 3 3 3 3 3 3 3 4 4 4 4 4 5 4 4 4 4 3 3 3 3 3 3 3 4 4 4 5 4 4 4 4 3 2 2 2 2 2 2 3 3 3 3 3 3 3 3 3 3 3 3 3 3 3 3 4 4 3 3 3 3 3 3 3 3 3 3 2 
